<svg width="41" height="48" viewBox="0 0 41 48" fill="none" xmlns="http://www.w3.org/2000/svg">
<path d="M9.5251 48H10.2411C11.8521 44.7327 12.7141 42.9687 13.455 41.1313C12.1397 43.8186 11.2093 45.3065 9.5798 47.9125L9.57978 47.9125L9.5251 48Z" fill="white"/>
<path d="M11.7232 46.6329C14.4907 43.7455 16.2139 42.2493 20.8486 40.6978C27.4699 37.9802 30.8536 36.3701 34.4702 32.8621C33.9022 33.2692 33.5209 33.3971 32.7383 33.4623C33.6922 32.9045 34.5067 32.364 35.2195 31.7944C35.4693 31.2116 36.1854 30.5281 35.9855 30.3947C35.7857 30.2614 35.3861 30.6948 34.8698 30.5948C34.6483 30.5128 34.5979 30.2388 34.6867 30.0446C36.0972 27.3882 36.8182 26.3602 36.0355 25.3266C35.2529 24.2929 31.3562 28.1441 28.8417 28.3275C28.1732 28.3546 27.8946 28.2293 27.5429 27.794C22.1774 31.0732 20.0424 32.9499 16.9853 36.3298C14.8648 39.1875 13.6164 41.6658 11.3568 46.5662L11.7232 46.6329Z" fill="white"/>
<path d="M28.0091 20.6918C25.9117 22.0282 24.8564 22.8832 23.1466 24.5597C23.2471 24.2821 24.0438 23.0195 24.3456 22.7591C17.0247 27.9117 13.9921 31.2486 12.3227 38.7639C12.0607 37.916 11.9638 37.4626 11.8897 36.6966C11.841 39.9985 11.8497 41.0703 11.7232 42.6484C11.5074 42.1952 11.4681 41.9895 11.4255 41.6481C11.3564 41.6903 11.3609 43.032 11.4255 43.682C13.2428 39.9867 14.3381 38.1953 16.4524 35.4963C19.556 32.1744 22.004 30.3795 27.4096 27.2771C27.3207 26.734 28.0121 25.9796 30.7401 23.7261C32.4888 22.2775 33.172 21.5561 32.5718 20.8252C32.2066 20.439 31.3517 20.8608 29.4412 21.9922C28.9191 22.321 28.8201 22.455 28.5753 22.4757C28.2896 22.4288 28.3335 22.2657 28.7418 21.7255C29.383 20.9004 29.8145 20.3856 29.6077 20.175C29.5057 20.0672 29.1021 20.3878 28.4088 20.7585C28.2112 20.8837 28.1283 20.8518 28.0091 20.6918Z" fill="white"/>
<path d="M6.86074 19.8249C5.67794 24.2936 5.14983 26.8467 5.22881 31.7618C5.61107 36.5076 6.39084 39.4887 8.77608 43.9154C8.75078 42.5545 8.76985 41.7916 8.92562 40.4311C8.82944 40.5315 8.7625 40.5577 8.62587 40.5644C8.37031 39.8135 9.09634 37.3752 9.89119 35.2629C11.3543 31.9748 12.1626 30.1516 13.5883 26.927C14.7454 24.5519 14.9221 21.1123 15.0536 18.7913C14.8695 19.3749 14.7266 19.6626 14.3543 20.0583C14.5597 19.1501 14.7124 18.3258 14.8106 17.5576C14.6766 16.2817 14.5974 15.6279 14.3543 16.0905C14.1166 16.8001 13.9793 17.0239 13.7215 16.924C13.2913 16.521 13.072 16.0905 12.7556 14.7567C12.4392 13.423 11.4819 12.3945 11.0904 12.4227C10.4373 12.5211 9.96768 15.1007 9.35857 16.8574C8.8 18.4683 8.07197 20.2854 6.86074 19.8249Z" fill="#EA1313"/>
<path d="M4.26298 32.5287C4.32889 28.2208 4.37546 25.7959 6.46108 19.4581C5.81001 18.9733 5.91386 17.8943 6.26125 15.6903C6.62241 12.665 6.55234 11.6203 5.66177 11.5891C5.08087 11.569 4.8555 12.3755 4.46281 13.8898C4.10479 15.3958 3.96901 15.7646 3.83002 15.657C3.56625 15.773 3.46373 14.6487 3.26384 13.0896C2.98634 14.0533 2.84924 14.3529 2.61441 14.7567C2.46231 14.9079 2.39182 14.7862 2.26471 14.59C2.0257 16.5602 1.84891 17.7006 1.4654 19.7916C1.35707 19.4787 1.31053 19.1534 1.23227 18.5245C0.203266 22.4272 -0.0315628 24.7513 0.299741 29.1944C0.838966 32.8948 1.41286 34.7587 3.36376 37.3635C3.00349 37.2982 2.68069 37.0798 2.06488 36.6299C4.28325 38.9075 5.44273 40.1093 5.69508 40.6311C5.36819 40.5441 5.18623 40.4583 4.86246 40.2644C5.6927 41.1672 6.32006 41.8172 7.16184 42.5652C5.53526 39.3652 4.7771 36.611 4.26298 32.5287Z" fill="#EA1313"/>
<path d="M9.59171 46.7663L9.99136 46.0661C9.54559 45.3075 9.14194 44.5944 8.77608 43.9154C8.13203 43.4002 7.61576 42.9685 7.16184 42.5652C7.81721 43.8545 8.61355 45.2162 9.59171 46.7663Z" fill="#EA1313"/>
<path d="M7.79326 9.42181C8.23355 12.2072 8.05419 14.4465 6.86074 19.8249C8.07197 20.2854 8.8 18.4683 9.35857 16.8574C9.96768 15.1007 10.4373 12.5211 11.0904 12.4227C11.4819 12.3945 12.4392 13.423 12.7556 14.7567C13.072 16.0905 13.2913 16.521 13.7215 16.924C13.9793 17.0239 14.1166 16.8001 14.3543 16.0905C14.5974 15.6279 14.6766 16.2817 14.8106 17.5576C15.2231 14.33 14.6728 12.0932 13.0221 8.78828C11.365 5.85105 10.028 4.33143 7.327 1.71951C7.53041 2.12684 7.60898 2.32597 7.59343 2.55309C5.23599 0.239359 3.47148 -0.0937517 0 0.0189989C2.38929 3.03291 2.86629 8.15411 2.26471 14.59C2.39182 14.7862 2.46231 14.9079 2.61441 14.7567C2.84924 14.3529 2.98634 14.0533 3.26384 13.0896C3.46373 14.6487 3.56625 15.773 3.83002 15.657C3.96901 15.7646 4.10479 15.3958 4.46281 13.8898C4.8555 12.3755 5.08087 11.569 5.66177 11.5891C6.55234 11.6203 6.62241 12.665 6.26125 15.6903C5.91386 17.8943 5.81001 18.9733 6.46108 19.4581C7.38992 16.1677 7.77045 14.1068 7.79326 9.42181Z" fill="white"/>
<path d="M39.9654 24.493C40.9312 20.9517 41.1633 18.8051 40.898 14.6234C40.8651 14.9143 40.7656 15.0302 40.6315 15.2235C40.4584 12.2918 39.2588 10.3193 36.7349 8.05473C36.854 9.36963 34.695 13.8505 32.6384 15.9904C30.8533 18.172 29.8355 19.138 28.0091 20.6918C28.1283 20.8518 28.2112 20.8837 28.4088 20.7585C29.1021 20.3878 29.5057 20.0672 29.6077 20.175C29.8145 20.3856 29.383 20.9004 28.7418 21.7255C28.3335 22.2657 28.2896 22.4288 28.5753 22.4757C28.8201 22.455 28.9191 22.321 29.4412 21.9922C31.3517 20.8608 32.2066 20.439 32.5718 20.8252C33.172 21.5561 32.4888 22.2775 30.7401 23.7261C28.0121 25.9796 27.3207 26.734 27.4096 27.2771C30.6968 25.3748 32.4481 24.0105 35.436 21.1253C33.0385 24.1062 31.0818 25.3928 27.5429 27.794C27.8946 28.2293 28.1732 28.3546 28.8417 28.3275C31.3562 28.1441 35.2529 24.2929 36.0355 25.3266C36.8182 26.3602 36.0972 27.3882 34.6867 30.0446C34.5979 30.2388 34.6483 30.5128 34.8698 30.5948C35.3861 30.6948 35.7857 30.2614 35.9855 30.3947C36.1854 30.5281 35.4693 31.2116 35.2195 31.7944C37.3844 30.0643 38.6126 28.0651 39.9654 24.493Z" fill="#EA1313"/>
</svg>
